<mxfile host="Electron" modified="2023-07-01T14:47:27.240Z" agent="Mozilla/5.0 (Windows NT 10.0; Win64; x64) AppleWebKit/537.36 (KHTML, like Gecko) draw.io/21.2.8 Chrome/112.0.5615.165 Electron/24.2.0 Safari/537.36" etag="VdHLCegnELHj_awMmMGA" version="21.2.8" type="device">
  <diagram id="C5RBs43oDa-KdzZeNtuy" name="Page-1">
    <mxGraphModel dx="712" dy="2325" grid="1" gridSize="10" guides="1" tooltips="1" connect="1" arrows="1" fold="1" page="0" pageScale="1" pageWidth="827" pageHeight="1169" math="0" shadow="0">
      <root>
        <mxCell id="WIyWlLk6GJQsqaUBKTNV-0" />
        <mxCell id="WIyWlLk6GJQsqaUBKTNV-1" parent="WIyWlLk6GJQsqaUBKTNV-0" />
        <mxCell id="6CRWh8PKts176B--1qCp-36" value="AdminLog" style="swimlane;fontStyle=2;align=center;verticalAlign=top;childLayout=stackLayout;horizontal=1;startSize=26;horizontalStack=0;resizeParent=1;resizeLast=0;collapsible=1;marginBottom=0;rounded=0;shadow=0;strokeWidth=1;" parent="WIyWlLk6GJQsqaUBKTNV-1" vertex="1">
          <mxGeometry x="2680" y="-438" width="230" height="220" as="geometry">
            <mxRectangle x="230" y="140" width="160" height="26" as="alternateBounds" />
          </mxGeometry>
        </mxCell>
        <mxCell id="6CRWh8PKts176B--1qCp-37" value="AdminLogId : long" style="text;align=left;verticalAlign=top;spacingLeft=4;spacingRight=4;overflow=hidden;rotatable=0;points=[[0,0.5],[1,0.5]];portConstraint=eastwest;" parent="6CRWh8PKts176B--1qCp-36" vertex="1">
          <mxGeometry y="26" width="230" height="26" as="geometry" />
        </mxCell>
        <mxCell id="6CRWh8PKts176B--1qCp-38" value="Giver : IdentityUser" style="text;align=left;verticalAlign=top;spacingLeft=4;spacingRight=4;overflow=hidden;rotatable=0;points=[[0,0.5],[1,0.5]];portConstraint=eastwest;rounded=0;shadow=0;html=0;" parent="6CRWh8PKts176B--1qCp-36" vertex="1">
          <mxGeometry y="52" width="230" height="26" as="geometry" />
        </mxCell>
        <mxCell id="6CRWh8PKts176B--1qCp-39" value="Receiver : IdentityUser" style="text;align=left;verticalAlign=top;spacingLeft=4;spacingRight=4;overflow=hidden;rotatable=0;points=[[0,0.5],[1,0.5]];portConstraint=eastwest;rounded=0;shadow=0;html=0;" parent="6CRWh8PKts176B--1qCp-36" vertex="1">
          <mxGeometry y="78" width="230" height="26" as="geometry" />
        </mxCell>
        <mxCell id="6CRWh8PKts176B--1qCp-66" value="Message : string" style="text;align=left;verticalAlign=top;spacingLeft=4;spacingRight=4;overflow=hidden;rotatable=0;points=[[0,0.5],[1,0.5]];portConstraint=eastwest;rounded=0;shadow=0;html=0;" parent="6CRWh8PKts176B--1qCp-36" vertex="1">
          <mxGeometry y="104" width="230" height="26" as="geometry" />
        </mxCell>
        <mxCell id="6CRWh8PKts176B--1qCp-65" value="Date DateTimeOffset" style="text;align=left;verticalAlign=top;spacingLeft=4;spacingRight=4;overflow=hidden;rotatable=0;points=[[0,0.5],[1,0.5]];portConstraint=eastwest;rounded=0;shadow=0;html=0;" parent="6CRWh8PKts176B--1qCp-36" vertex="1">
          <mxGeometry y="130" width="230" height="26" as="geometry" />
        </mxCell>
        <mxCell id="6CRWh8PKts176B--1qCp-40" value="" style="line;html=1;strokeWidth=1;align=left;verticalAlign=middle;spacingTop=-1;spacingLeft=3;spacingRight=3;rotatable=0;labelPosition=right;points=[];portConstraint=eastwest;" parent="6CRWh8PKts176B--1qCp-36" vertex="1">
          <mxGeometry y="156" width="230" height="8" as="geometry" />
        </mxCell>
        <mxCell id="6CRWh8PKts176B--1qCp-41" value="AdminLog(giverId, receiverId)" style="text;align=left;verticalAlign=top;spacingLeft=4;spacingRight=4;overflow=hidden;rotatable=0;points=[[0,0.5],[1,0.5]];portConstraint=eastwest;" parent="6CRWh8PKts176B--1qCp-36" vertex="1">
          <mxGeometry y="164" width="230" height="26" as="geometry" />
        </mxCell>
        <mxCell id="6CRWh8PKts176B--1qCp-42" value="AdminLog(giverId, receiverId, message)" style="text;align=left;verticalAlign=top;spacingLeft=4;spacingRight=4;overflow=hidden;rotatable=0;points=[[0,0.5],[1,0.5]];portConstraint=eastwest;" parent="6CRWh8PKts176B--1qCp-36" vertex="1">
          <mxGeometry y="190" width="230" height="26" as="geometry" />
        </mxCell>
        <mxCell id="6CRWh8PKts176B--1qCp-50" value="Student" style="swimlane;fontStyle=2;align=center;verticalAlign=top;childLayout=stackLayout;horizontal=1;startSize=26;horizontalStack=0;resizeParent=1;resizeLast=0;collapsible=1;marginBottom=0;rounded=0;shadow=0;strokeWidth=1;" parent="WIyWlLk6GJQsqaUBKTNV-1" vertex="1">
          <mxGeometry x="1680" y="-438" width="330" height="220" as="geometry">
            <mxRectangle x="230" y="140" width="160" height="26" as="alternateBounds" />
          </mxGeometry>
        </mxCell>
        <mxCell id="6CRWh8PKts176B--1qCp-51" value="StudentId : long" style="text;align=left;verticalAlign=top;spacingLeft=4;spacingRight=4;overflow=hidden;rotatable=0;points=[[0,0.5],[1,0.5]];portConstraint=eastwest;" parent="6CRWh8PKts176B--1qCp-50" vertex="1">
          <mxGeometry y="26" width="330" height="26" as="geometry" />
        </mxCell>
        <mxCell id="6CRWh8PKts176B--1qCp-52" value="StudentImage : StudentImage" style="text;align=left;verticalAlign=top;spacingLeft=4;spacingRight=4;overflow=hidden;rotatable=0;points=[[0,0.5],[1,0.5]];portConstraint=eastwest;rounded=0;shadow=0;html=0;" parent="6CRWh8PKts176B--1qCp-50" vertex="1">
          <mxGeometry y="52" width="330" height="26" as="geometry" />
        </mxCell>
        <mxCell id="6CRWh8PKts176B--1qCp-53" value="SwimClass : SwimClass" style="text;align=left;verticalAlign=top;spacingLeft=4;spacingRight=4;overflow=hidden;rotatable=0;points=[[0,0.5],[1,0.5]];portConstraint=eastwest;rounded=0;shadow=0;html=0;" parent="6CRWh8PKts176B--1qCp-50" vertex="1">
          <mxGeometry y="78" width="330" height="26" as="geometry" />
        </mxCell>
        <mxCell id="6CRWh8PKts176B--1qCp-69" value="CustomerNumber : int" style="text;align=left;verticalAlign=top;spacingLeft=4;spacingRight=4;overflow=hidden;rotatable=0;points=[[0,0.5],[1,0.5]];portConstraint=eastwest;rounded=0;shadow=0;html=0;" parent="6CRWh8PKts176B--1qCp-50" vertex="1">
          <mxGeometry y="104" width="330" height="26" as="geometry" />
        </mxCell>
        <mxCell id="6CRWh8PKts176B--1qCp-68" value="Name : string" style="text;align=left;verticalAlign=top;spacingLeft=4;spacingRight=4;overflow=hidden;rotatable=0;points=[[0,0.5],[1,0.5]];portConstraint=eastwest;rounded=0;shadow=0;html=0;" parent="6CRWh8PKts176B--1qCp-50" vertex="1">
          <mxGeometry y="130" width="330" height="26" as="geometry" />
        </mxCell>
        <mxCell id="6CRWh8PKts176B--1qCp-54" value="" style="line;html=1;strokeWidth=1;align=left;verticalAlign=middle;spacingTop=-1;spacingLeft=3;spacingRight=3;rotatable=0;labelPosition=right;points=[];portConstraint=eastwest;" parent="6CRWh8PKts176B--1qCp-50" vertex="1">
          <mxGeometry y="156" width="330" height="8" as="geometry" />
        </mxCell>
        <mxCell id="6CRWh8PKts176B--1qCp-55" value="Student(customerNumber, name)" style="text;align=left;verticalAlign=top;spacingLeft=4;spacingRight=4;overflow=hidden;rotatable=0;points=[[0,0.5],[1,0.5]];portConstraint=eastwest;" parent="6CRWh8PKts176B--1qCp-50" vertex="1">
          <mxGeometry y="164" width="330" height="26" as="geometry" />
        </mxCell>
        <mxCell id="6CRWh8PKts176B--1qCp-56" value="Student(studentImage, swimClass, customerNumber, name)" style="text;align=left;verticalAlign=top;spacingLeft=4;spacingRight=4;overflow=hidden;rotatable=0;points=[[0,0.5],[1,0.5]];portConstraint=eastwest;" parent="6CRWh8PKts176B--1qCp-50" vertex="1">
          <mxGeometry y="190" width="330" height="26" as="geometry" />
        </mxCell>
        <mxCell id="6CRWh8PKts176B--1qCp-57" value="StudentFeedback" style="swimlane;fontStyle=2;align=center;verticalAlign=top;childLayout=stackLayout;horizontal=1;startSize=26;horizontalStack=0;resizeParent=1;resizeLast=0;collapsible=1;marginBottom=0;rounded=0;shadow=0;strokeWidth=1;" parent="WIyWlLk6GJQsqaUBKTNV-1" vertex="1">
          <mxGeometry x="2080" y="-438" width="250" height="216" as="geometry">
            <mxRectangle x="230" y="140" width="160" height="26" as="alternateBounds" />
          </mxGeometry>
        </mxCell>
        <mxCell id="6CRWh8PKts176B--1qCp-58" value="StudentFeedbackId : long" style="text;align=left;verticalAlign=top;spacingLeft=4;spacingRight=4;overflow=hidden;rotatable=0;points=[[0,0.5],[1,0.5]];portConstraint=eastwest;" parent="6CRWh8PKts176B--1qCp-57" vertex="1">
          <mxGeometry y="26" width="250" height="26" as="geometry" />
        </mxCell>
        <mxCell id="6CRWh8PKts176B--1qCp-59" value="Student : Student" style="text;align=left;verticalAlign=top;spacingLeft=4;spacingRight=4;overflow=hidden;rotatable=0;points=[[0,0.5],[1,0.5]];portConstraint=eastwest;rounded=0;shadow=0;html=0;" parent="6CRWh8PKts176B--1qCp-57" vertex="1">
          <mxGeometry y="52" width="250" height="26" as="geometry" />
        </mxCell>
        <mxCell id="6CRWh8PKts176B--1qCp-60" value="Topic : string" style="text;align=left;verticalAlign=top;spacingLeft=4;spacingRight=4;overflow=hidden;rotatable=0;points=[[0,0.5],[1,0.5]];portConstraint=eastwest;rounded=0;shadow=0;html=0;" parent="6CRWh8PKts176B--1qCp-57" vertex="1">
          <mxGeometry y="78" width="250" height="26" as="geometry" />
        </mxCell>
        <mxCell id="6CRWh8PKts176B--1qCp-72" value="Score : int" style="text;align=left;verticalAlign=top;spacingLeft=4;spacingRight=4;overflow=hidden;rotatable=0;points=[[0,0.5],[1,0.5]];portConstraint=eastwest;rounded=0;shadow=0;html=0;" parent="6CRWh8PKts176B--1qCp-57" vertex="1">
          <mxGeometry y="104" width="250" height="26" as="geometry" />
        </mxCell>
        <mxCell id="6CRWh8PKts176B--1qCp-71" value="Date : DateTimeOffset" style="text;align=left;verticalAlign=top;spacingLeft=4;spacingRight=4;overflow=hidden;rotatable=0;points=[[0,0.5],[1,0.5]];portConstraint=eastwest;rounded=0;shadow=0;html=0;" parent="6CRWh8PKts176B--1qCp-57" vertex="1">
          <mxGeometry y="130" width="250" height="26" as="geometry" />
        </mxCell>
        <mxCell id="6CRWh8PKts176B--1qCp-61" value="" style="line;html=1;strokeWidth=1;align=left;verticalAlign=middle;spacingTop=-1;spacingLeft=3;spacingRight=3;rotatable=0;labelPosition=right;points=[];portConstraint=eastwest;" parent="6CRWh8PKts176B--1qCp-57" vertex="1">
          <mxGeometry y="156" width="250" height="8" as="geometry" />
        </mxCell>
        <mxCell id="6CRWh8PKts176B--1qCp-62" value="StudentFeedback(topic, score,date)" style="text;align=left;verticalAlign=top;spacingLeft=4;spacingRight=4;overflow=hidden;rotatable=0;points=[[0,0.5],[1,0.5]];portConstraint=eastwest;" parent="6CRWh8PKts176B--1qCp-57" vertex="1">
          <mxGeometry y="164" width="250" height="26" as="geometry" />
        </mxCell>
        <mxCell id="6CRWh8PKts176B--1qCp-63" value="StudentFeedback(student, topic, score,date)" style="text;align=left;verticalAlign=top;spacingLeft=4;spacingRight=4;overflow=hidden;rotatable=0;points=[[0,0.5],[1,0.5]];portConstraint=eastwest;" parent="6CRWh8PKts176B--1qCp-57" vertex="1">
          <mxGeometry y="190" width="250" height="26" as="geometry" />
        </mxCell>
        <mxCell id="6CRWh8PKts176B--1qCp-73" value="StudentImage" style="swimlane;fontStyle=2;align=center;verticalAlign=top;childLayout=stackLayout;horizontal=1;startSize=26;horizontalStack=0;resizeParent=1;resizeLast=0;collapsible=1;marginBottom=0;rounded=0;shadow=0;strokeWidth=1;" parent="WIyWlLk6GJQsqaUBKTNV-1" vertex="1">
          <mxGeometry x="1280" y="-438" width="160" height="112" as="geometry">
            <mxRectangle x="230" y="140" width="160" height="26" as="alternateBounds" />
          </mxGeometry>
        </mxCell>
        <mxCell id="6CRWh8PKts176B--1qCp-74" value="StudentImageId : long" style="text;align=left;verticalAlign=top;spacingLeft=4;spacingRight=4;overflow=hidden;rotatable=0;points=[[0,0.5],[1,0.5]];portConstraint=eastwest;" parent="6CRWh8PKts176B--1qCp-73" vertex="1">
          <mxGeometry y="26" width="160" height="26" as="geometry" />
        </mxCell>
        <mxCell id="6CRWh8PKts176B--1qCp-75" value="Data : string" style="text;align=left;verticalAlign=top;spacingLeft=4;spacingRight=4;overflow=hidden;rotatable=0;points=[[0,0.5],[1,0.5]];portConstraint=eastwest;rounded=0;shadow=0;html=0;" parent="6CRWh8PKts176B--1qCp-73" vertex="1">
          <mxGeometry y="52" width="160" height="26" as="geometry" />
        </mxCell>
        <mxCell id="6CRWh8PKts176B--1qCp-77" value="" style="line;html=1;strokeWidth=1;align=left;verticalAlign=middle;spacingTop=-1;spacingLeft=3;spacingRight=3;rotatable=0;labelPosition=right;points=[];portConstraint=eastwest;" parent="6CRWh8PKts176B--1qCp-73" vertex="1">
          <mxGeometry y="78" width="160" height="8" as="geometry" />
        </mxCell>
        <mxCell id="6CRWh8PKts176B--1qCp-78" value="StudentImage(data)" style="text;align=left;verticalAlign=top;spacingLeft=4;spacingRight=4;overflow=hidden;rotatable=0;points=[[0,0.5],[1,0.5]];portConstraint=eastwest;" parent="6CRWh8PKts176B--1qCp-73" vertex="1">
          <mxGeometry y="86" width="160" height="26" as="geometry" />
        </mxCell>
        <mxCell id="6CRWh8PKts176B--1qCp-80" value="SwimClass" style="swimlane;fontStyle=2;align=center;verticalAlign=top;childLayout=stackLayout;horizontal=1;startSize=26;horizontalStack=0;resizeParent=1;resizeLast=0;collapsible=1;marginBottom=0;rounded=0;shadow=0;strokeWidth=1;" parent="WIyWlLk6GJQsqaUBKTNV-1" vertex="1">
          <mxGeometry x="1480" y="-438" width="160" height="112" as="geometry">
            <mxRectangle x="230" y="140" width="160" height="26" as="alternateBounds" />
          </mxGeometry>
        </mxCell>
        <mxCell id="6CRWh8PKts176B--1qCp-81" value="SwimClassId : long" style="text;align=left;verticalAlign=top;spacingLeft=4;spacingRight=4;overflow=hidden;rotatable=0;points=[[0,0.5],[1,0.5]];portConstraint=eastwest;" parent="6CRWh8PKts176B--1qCp-80" vertex="1">
          <mxGeometry y="26" width="160" height="26" as="geometry" />
        </mxCell>
        <mxCell id="6CRWh8PKts176B--1qCp-82" value="Name : string" style="text;align=left;verticalAlign=top;spacingLeft=4;spacingRight=4;overflow=hidden;rotatable=0;points=[[0,0.5],[1,0.5]];portConstraint=eastwest;rounded=0;shadow=0;html=0;" parent="6CRWh8PKts176B--1qCp-80" vertex="1">
          <mxGeometry y="52" width="160" height="26" as="geometry" />
        </mxCell>
        <mxCell id="6CRWh8PKts176B--1qCp-84" value="" style="line;html=1;strokeWidth=1;align=left;verticalAlign=middle;spacingTop=-1;spacingLeft=3;spacingRight=3;rotatable=0;labelPosition=right;points=[];portConstraint=eastwest;" parent="6CRWh8PKts176B--1qCp-80" vertex="1">
          <mxGeometry y="78" width="160" height="8" as="geometry" />
        </mxCell>
        <mxCell id="6CRWh8PKts176B--1qCp-85" value="SwimClass(name)" style="text;align=left;verticalAlign=top;spacingLeft=4;spacingRight=4;overflow=hidden;rotatable=0;points=[[0,0.5],[1,0.5]];portConstraint=eastwest;" parent="6CRWh8PKts176B--1qCp-80" vertex="1">
          <mxGeometry y="86" width="160" height="26" as="geometry" />
        </mxCell>
        <mxCell id="maccgnzFSgEfdM4xMET2-0" style="edgeStyle=orthogonalEdgeStyle;rounded=0;orthogonalLoop=1;jettySize=auto;html=1;endArrow=none;endFill=0;fillColor=#008a00;strokeColor=#005700;" edge="1" parent="WIyWlLk6GJQsqaUBKTNV-1" source="6CRWh8PKts176B--1qCp-87" target="6CRWh8PKts176B--1qCp-80">
          <mxGeometry relative="1" as="geometry">
            <Array as="points">
              <mxPoint x="1630" y="-190" />
            </Array>
          </mxGeometry>
        </mxCell>
        <mxCell id="maccgnzFSgEfdM4xMET2-1" style="edgeStyle=orthogonalEdgeStyle;rounded=0;orthogonalLoop=1;jettySize=auto;html=1;endArrow=none;endFill=0;fillColor=#008a00;strokeColor=#005700;" edge="1" parent="WIyWlLk6GJQsqaUBKTNV-1" source="6CRWh8PKts176B--1qCp-87" target="6CRWh8PKts176B--1qCp-50">
          <mxGeometry relative="1" as="geometry">
            <Array as="points">
              <mxPoint x="1845" y="-190" />
            </Array>
          </mxGeometry>
        </mxCell>
        <mxCell id="6CRWh8PKts176B--1qCp-87" value="TeacherFeedback" style="swimlane;fontStyle=2;align=center;verticalAlign=top;childLayout=stackLayout;horizontal=1;startSize=26;horizontalStack=0;resizeParent=1;resizeLast=0;collapsible=1;marginBottom=0;rounded=0;shadow=0;strokeWidth=1;" parent="WIyWlLk6GJQsqaUBKTNV-1" vertex="1">
          <mxGeometry x="2400" y="-438" width="210" height="268" as="geometry">
            <mxRectangle x="230" y="140" width="160" height="26" as="alternateBounds" />
          </mxGeometry>
        </mxCell>
        <mxCell id="6CRWh8PKts176B--1qCp-92" value="TeacherFeedback(topic, notes, date)" style="text;align=left;verticalAlign=top;spacingLeft=4;spacingRight=4;overflow=hidden;rotatable=0;points=[[0,0.5],[1,0.5]];portConstraint=eastwest;" parent="6CRWh8PKts176B--1qCp-87" vertex="1">
          <mxGeometry y="26" width="210" height="26" as="geometry" />
        </mxCell>
        <mxCell id="6CRWh8PKts176B--1qCp-88" value="TeacherFeedbackId : long" style="text;align=left;verticalAlign=top;spacingLeft=4;spacingRight=4;overflow=hidden;rotatable=0;points=[[0,0.5],[1,0.5]];portConstraint=eastwest;" parent="6CRWh8PKts176B--1qCp-87" vertex="1">
          <mxGeometry y="52" width="210" height="26" as="geometry" />
        </mxCell>
        <mxCell id="6CRWh8PKts176B--1qCp-89" value="Account : IdentityUser" style="text;align=left;verticalAlign=top;spacingLeft=4;spacingRight=4;overflow=hidden;rotatable=0;points=[[0,0.5],[1,0.5]];portConstraint=eastwest;rounded=0;shadow=0;html=0;" parent="6CRWh8PKts176B--1qCp-87" vertex="1">
          <mxGeometry y="78" width="210" height="26" as="geometry" />
        </mxCell>
        <mxCell id="6CRWh8PKts176B--1qCp-90" value="SwimClass : SwimClass" style="text;align=left;verticalAlign=top;spacingLeft=4;spacingRight=4;overflow=hidden;rotatable=0;points=[[0,0.5],[1,0.5]];portConstraint=eastwest;rounded=0;shadow=0;html=0;" parent="6CRWh8PKts176B--1qCp-87" vertex="1">
          <mxGeometry y="104" width="210" height="26" as="geometry" />
        </mxCell>
        <mxCell id="6CRWh8PKts176B--1qCp-97" value="Student : Student" style="text;align=left;verticalAlign=top;spacingLeft=4;spacingRight=4;overflow=hidden;rotatable=0;points=[[0,0.5],[1,0.5]];portConstraint=eastwest;rounded=0;shadow=0;html=0;" parent="6CRWh8PKts176B--1qCp-87" vertex="1">
          <mxGeometry y="130" width="210" height="26" as="geometry" />
        </mxCell>
        <mxCell id="6CRWh8PKts176B--1qCp-96" value="Topic : string" style="text;align=left;verticalAlign=top;spacingLeft=4;spacingRight=4;overflow=hidden;rotatable=0;points=[[0,0.5],[1,0.5]];portConstraint=eastwest;rounded=0;shadow=0;html=0;" parent="6CRWh8PKts176B--1qCp-87" vertex="1">
          <mxGeometry y="156" width="210" height="26" as="geometry" />
        </mxCell>
        <mxCell id="6CRWh8PKts176B--1qCp-95" value="Notes : string" style="text;align=left;verticalAlign=top;spacingLeft=4;spacingRight=4;overflow=hidden;rotatable=0;points=[[0,0.5],[1,0.5]];portConstraint=eastwest;rounded=0;shadow=0;html=0;" parent="6CRWh8PKts176B--1qCp-87" vertex="1">
          <mxGeometry y="182" width="210" height="26" as="geometry" />
        </mxCell>
        <mxCell id="6CRWh8PKts176B--1qCp-94" value="Date : DateTimeOffset" style="text;align=left;verticalAlign=top;spacingLeft=4;spacingRight=4;overflow=hidden;rotatable=0;points=[[0,0.5],[1,0.5]];portConstraint=eastwest;rounded=0;shadow=0;html=0;" parent="6CRWh8PKts176B--1qCp-87" vertex="1">
          <mxGeometry y="208" width="210" height="26" as="geometry" />
        </mxCell>
        <mxCell id="6CRWh8PKts176B--1qCp-91" value="" style="line;html=1;strokeWidth=1;align=left;verticalAlign=middle;spacingTop=-1;spacingLeft=3;spacingRight=3;rotatable=0;labelPosition=right;points=[];portConstraint=eastwest;" parent="6CRWh8PKts176B--1qCp-87" vertex="1">
          <mxGeometry y="234" width="210" height="8" as="geometry" />
        </mxCell>
        <mxCell id="JU_nMkFmCKwqY1G1YkKE-2" value="TeacherFeedback(topic, notes, date)" style="text;align=left;verticalAlign=top;spacingLeft=4;spacingRight=4;overflow=hidden;rotatable=0;points=[[0,0.5],[1,0.5]];portConstraint=eastwest;rounded=0;shadow=0;html=0;" parent="6CRWh8PKts176B--1qCp-87" vertex="1">
          <mxGeometry y="242" width="210" height="26" as="geometry" />
        </mxCell>
        <mxCell id="maccgnzFSgEfdM4xMET2-6" style="edgeStyle=orthogonalEdgeStyle;rounded=0;orthogonalLoop=1;jettySize=auto;html=1;endArrow=block;endFill=0;" edge="1" parent="WIyWlLk6GJQsqaUBKTNV-1" source="X-DzYqNd1Hr_8xvSPmw0-0" target="maccgnzFSgEfdM4xMET2-5">
          <mxGeometry relative="1" as="geometry" />
        </mxCell>
        <mxCell id="X-DzYqNd1Hr_8xvSPmw0-0" value="ApplicationDbContext" style="swimlane;fontStyle=2;align=center;verticalAlign=top;childLayout=stackLayout;horizontal=1;startSize=26;horizontalStack=0;resizeParent=1;resizeLast=0;collapsible=1;marginBottom=0;rounded=0;shadow=0;strokeWidth=1;" parent="WIyWlLk6GJQsqaUBKTNV-1" vertex="1">
          <mxGeometry x="2000" y="-758" width="270" height="230" as="geometry">
            <mxRectangle x="230" y="140" width="160" height="26" as="alternateBounds" />
          </mxGeometry>
        </mxCell>
        <mxCell id="X-DzYqNd1Hr_8xvSPmw0-1" value="AdminLogs : DbSet&lt;AdminLog&gt;" style="text;align=left;verticalAlign=top;spacingLeft=4;spacingRight=4;overflow=hidden;rotatable=0;points=[[0,0.5],[1,0.5]];portConstraint=eastwest;" parent="X-DzYqNd1Hr_8xvSPmw0-0" vertex="1">
          <mxGeometry y="26" width="270" height="26" as="geometry" />
        </mxCell>
        <mxCell id="X-DzYqNd1Hr_8xvSPmw0-2" value="Students : DbSet&lt;Student&gt;" style="text;align=left;verticalAlign=top;spacingLeft=4;spacingRight=4;overflow=hidden;rotatable=0;points=[[0,0.5],[1,0.5]];portConstraint=eastwest;rounded=0;shadow=0;html=0;" parent="X-DzYqNd1Hr_8xvSPmw0-0" vertex="1">
          <mxGeometry y="52" width="270" height="26" as="geometry" />
        </mxCell>
        <mxCell id="X-DzYqNd1Hr_8xvSPmw0-3" value="StudentFeedbacks : DbSet&lt;StudentFeedback&gt;" style="text;align=left;verticalAlign=top;spacingLeft=4;spacingRight=4;overflow=hidden;rotatable=0;points=[[0,0.5],[1,0.5]];portConstraint=eastwest;rounded=0;shadow=0;html=0;" parent="X-DzYqNd1Hr_8xvSPmw0-0" vertex="1">
          <mxGeometry y="78" width="270" height="26" as="geometry" />
        </mxCell>
        <mxCell id="X-DzYqNd1Hr_8xvSPmw0-10" value="StudentImages : DbSet&lt;StudentImage&gt;" style="text;align=left;verticalAlign=top;spacingLeft=4;spacingRight=4;overflow=hidden;rotatable=0;points=[[0,0.5],[1,0.5]];portConstraint=eastwest;rounded=0;shadow=0;html=0;" parent="X-DzYqNd1Hr_8xvSPmw0-0" vertex="1">
          <mxGeometry y="104" width="270" height="26" as="geometry" />
        </mxCell>
        <mxCell id="X-DzYqNd1Hr_8xvSPmw0-9" value="SwimClasses : DbSet&lt;SwimClass&gt;" style="text;align=left;verticalAlign=top;spacingLeft=4;spacingRight=4;overflow=hidden;rotatable=0;points=[[0,0.5],[1,0.5]];portConstraint=eastwest;rounded=0;shadow=0;html=0;" parent="X-DzYqNd1Hr_8xvSPmw0-0" vertex="1">
          <mxGeometry y="130" width="270" height="26" as="geometry" />
        </mxCell>
        <mxCell id="X-DzYqNd1Hr_8xvSPmw0-8" value="TeacherFeedbacks : DbSet&lt;TeacherFeedback&gt;" style="text;align=left;verticalAlign=top;spacingLeft=4;spacingRight=4;overflow=hidden;rotatable=0;points=[[0,0.5],[1,0.5]];portConstraint=eastwest;rounded=0;shadow=0;html=0;" parent="X-DzYqNd1Hr_8xvSPmw0-0" vertex="1">
          <mxGeometry y="156" width="270" height="26" as="geometry" />
        </mxCell>
        <mxCell id="X-DzYqNd1Hr_8xvSPmw0-4" value="" style="line;html=1;strokeWidth=1;align=left;verticalAlign=middle;spacingTop=-1;spacingLeft=3;spacingRight=3;rotatable=0;labelPosition=right;points=[];portConstraint=eastwest;" parent="X-DzYqNd1Hr_8xvSPmw0-0" vertex="1">
          <mxGeometry y="182" width="270" height="8" as="geometry" />
        </mxCell>
        <mxCell id="X-DzYqNd1Hr_8xvSPmw0-5" value="OnModelCreating(builder) : void" style="text;align=left;verticalAlign=top;spacingLeft=4;spacingRight=4;overflow=hidden;rotatable=0;points=[[0,0.5],[1,0.5]];portConstraint=eastwest;" parent="X-DzYqNd1Hr_8xvSPmw0-0" vertex="1">
          <mxGeometry y="190" width="270" height="26" as="geometry" />
        </mxCell>
        <mxCell id="X-DzYqNd1Hr_8xvSPmw0-11" value="" style="endArrow=none;endFill=0;endSize=24;html=1;rounded=0;entryX=0.5;entryY=1;entryDx=0;entryDy=0;edgeStyle=orthogonalEdgeStyle;exitX=0.5;exitY=0;exitDx=0;exitDy=0;" parent="WIyWlLk6GJQsqaUBKTNV-1" source="6CRWh8PKts176B--1qCp-73" target="X-DzYqNd1Hr_8xvSPmw0-0" edge="1">
          <mxGeometry width="160" relative="1" as="geometry">
            <mxPoint x="1810" y="-498" as="sourcePoint" />
            <mxPoint x="1970" y="-498" as="targetPoint" />
            <Array as="points">
              <mxPoint x="1360" y="-498" />
              <mxPoint x="2135" y="-498" />
            </Array>
          </mxGeometry>
        </mxCell>
        <mxCell id="JU_nMkFmCKwqY1G1YkKE-9" value="0..*" style="edgeLabel;html=1;align=center;verticalAlign=middle;resizable=0;points=[];" parent="X-DzYqNd1Hr_8xvSPmw0-11" vertex="1" connectable="0">
          <mxGeometry x="-0.8884" y="4" relative="1" as="geometry">
            <mxPoint x="4" y="37" as="offset" />
          </mxGeometry>
        </mxCell>
        <mxCell id="X-DzYqNd1Hr_8xvSPmw0-15" value="" style="endArrow=none;endFill=0;endSize=24;html=1;rounded=0;entryX=0.5;entryY=1;entryDx=0;entryDy=0;exitX=0.5;exitY=0;exitDx=0;exitDy=0;edgeStyle=orthogonalEdgeStyle;" parent="WIyWlLk6GJQsqaUBKTNV-1" source="6CRWh8PKts176B--1qCp-80" target="X-DzYqNd1Hr_8xvSPmw0-0" edge="1">
          <mxGeometry width="160" relative="1" as="geometry">
            <mxPoint x="2020" y="-458" as="sourcePoint" />
            <mxPoint x="2180" y="-458" as="targetPoint" />
            <Array as="points">
              <mxPoint x="1560" y="-498" />
              <mxPoint x="2135" y="-498" />
            </Array>
          </mxGeometry>
        </mxCell>
        <mxCell id="JU_nMkFmCKwqY1G1YkKE-10" value="0..*" style="edgeLabel;html=1;align=center;verticalAlign=middle;resizable=0;points=[];" parent="X-DzYqNd1Hr_8xvSPmw0-15" vertex="1" connectable="0">
          <mxGeometry x="-0.9609" y="-1" relative="1" as="geometry">
            <mxPoint as="offset" />
          </mxGeometry>
        </mxCell>
        <mxCell id="X-DzYqNd1Hr_8xvSPmw0-16" value="" style="endArrow=none;endFill=0;endSize=24;html=1;rounded=0;edgeStyle=orthogonalEdgeStyle;entryX=0.5;entryY=1;entryDx=0;entryDy=0;exitX=0.5;exitY=0;exitDx=0;exitDy=0;" parent="WIyWlLk6GJQsqaUBKTNV-1" source="6CRWh8PKts176B--1qCp-50" target="X-DzYqNd1Hr_8xvSPmw0-0" edge="1">
          <mxGeometry width="160" relative="1" as="geometry">
            <mxPoint x="1720" y="-628" as="sourcePoint" />
            <mxPoint x="1880" y="-628" as="targetPoint" />
            <Array as="points">
              <mxPoint x="1845" y="-498" />
              <mxPoint x="2135" y="-498" />
            </Array>
          </mxGeometry>
        </mxCell>
        <mxCell id="JU_nMkFmCKwqY1G1YkKE-11" value="0..*" style="edgeLabel;html=1;align=center;verticalAlign=middle;resizable=0;points=[];" parent="X-DzYqNd1Hr_8xvSPmw0-16" vertex="1" connectable="0">
          <mxGeometry x="-0.9466" y="-1" relative="1" as="geometry">
            <mxPoint as="offset" />
          </mxGeometry>
        </mxCell>
        <mxCell id="X-DzYqNd1Hr_8xvSPmw0-17" value="" style="endArrow=none;endFill=0;endSize=24;html=1;rounded=0;edgeStyle=orthogonalEdgeStyle;entryX=0.5;entryY=1;entryDx=0;entryDy=0;exitX=0.5;exitY=0;exitDx=0;exitDy=0;" parent="WIyWlLk6GJQsqaUBKTNV-1" source="6CRWh8PKts176B--1qCp-57" target="X-DzYqNd1Hr_8xvSPmw0-0" edge="1">
          <mxGeometry width="160" relative="1" as="geometry">
            <mxPoint x="1720" y="-628" as="sourcePoint" />
            <mxPoint x="1880" y="-628" as="targetPoint" />
            <Array as="points">
              <mxPoint x="2205" y="-498" />
              <mxPoint x="2135" y="-498" />
            </Array>
          </mxGeometry>
        </mxCell>
        <mxCell id="JU_nMkFmCKwqY1G1YkKE-12" value="0..*" style="edgeLabel;html=1;align=center;verticalAlign=middle;resizable=0;points=[];" parent="X-DzYqNd1Hr_8xvSPmw0-17" vertex="1" connectable="0">
          <mxGeometry x="-0.8732" relative="1" as="geometry">
            <mxPoint as="offset" />
          </mxGeometry>
        </mxCell>
        <mxCell id="X-DzYqNd1Hr_8xvSPmw0-18" value="" style="endArrow=none;endFill=0;endSize=24;html=1;rounded=0;edgeStyle=orthogonalEdgeStyle;entryX=0.5;entryY=1;entryDx=0;entryDy=0;exitX=0.5;exitY=0;exitDx=0;exitDy=0;" parent="WIyWlLk6GJQsqaUBKTNV-1" source="6CRWh8PKts176B--1qCp-87" target="X-DzYqNd1Hr_8xvSPmw0-0" edge="1">
          <mxGeometry width="160" relative="1" as="geometry">
            <mxPoint x="2505" y="-438" as="sourcePoint" />
            <mxPoint x="1880" y="-628" as="targetPoint" />
            <Array as="points">
              <mxPoint x="2505" y="-498" />
              <mxPoint x="2135" y="-498" />
            </Array>
          </mxGeometry>
        </mxCell>
        <mxCell id="JU_nMkFmCKwqY1G1YkKE-13" value="0..*" style="edgeLabel;html=1;align=center;verticalAlign=middle;resizable=0;points=[];" parent="X-DzYqNd1Hr_8xvSPmw0-18" vertex="1" connectable="0">
          <mxGeometry x="-0.959" y="-1" relative="1" as="geometry">
            <mxPoint as="offset" />
          </mxGeometry>
        </mxCell>
        <mxCell id="X-DzYqNd1Hr_8xvSPmw0-19" value="" style="endArrow=none;endFill=0;endSize=24;html=1;rounded=0;edgeStyle=orthogonalEdgeStyle;entryX=0.5;entryY=1;entryDx=0;entryDy=0;exitX=0.5;exitY=0;exitDx=0;exitDy=0;" parent="WIyWlLk6GJQsqaUBKTNV-1" source="6CRWh8PKts176B--1qCp-36" target="X-DzYqNd1Hr_8xvSPmw0-0" edge="1">
          <mxGeometry width="160" relative="1" as="geometry">
            <mxPoint x="1720" y="-628" as="sourcePoint" />
            <mxPoint x="1880" y="-628" as="targetPoint" />
            <Array as="points">
              <mxPoint x="2795" y="-498" />
              <mxPoint x="2135" y="-498" />
            </Array>
          </mxGeometry>
        </mxCell>
        <mxCell id="JU_nMkFmCKwqY1G1YkKE-14" value="0..*" style="edgeLabel;html=1;align=center;verticalAlign=middle;resizable=0;points=[];" parent="X-DzYqNd1Hr_8xvSPmw0-19" vertex="1" connectable="0">
          <mxGeometry x="-0.9749" relative="1" as="geometry">
            <mxPoint as="offset" />
          </mxGeometry>
        </mxCell>
        <mxCell id="JU_nMkFmCKwqY1G1YkKE-15" value="0..1" style="edgeLabel;html=1;align=center;verticalAlign=middle;resizable=0;points=[];" parent="X-DzYqNd1Hr_8xvSPmw0-19" vertex="1" connectable="0">
          <mxGeometry x="0.9813" relative="1" as="geometry">
            <mxPoint as="offset" />
          </mxGeometry>
        </mxCell>
        <mxCell id="JU_nMkFmCKwqY1G1YkKE-17" value="" style="endArrow=none;html=1;rounded=0;edgeStyle=orthogonalEdgeStyle;" parent="WIyWlLk6GJQsqaUBKTNV-1" source="6CRWh8PKts176B--1qCp-80" target="6CRWh8PKts176B--1qCp-50" edge="1">
          <mxGeometry width="50" height="50" relative="1" as="geometry">
            <mxPoint x="1360" y="-110" as="sourcePoint" />
            <mxPoint x="1450" y="-110" as="targetPoint" />
            <Array as="points">
              <mxPoint x="1560" y="-300" />
            </Array>
          </mxGeometry>
        </mxCell>
        <mxCell id="JU_nMkFmCKwqY1G1YkKE-18" value="" style="endArrow=none;html=1;rounded=0;edgeStyle=orthogonalEdgeStyle;" parent="WIyWlLk6GJQsqaUBKTNV-1" source="6CRWh8PKts176B--1qCp-73" target="6CRWh8PKts176B--1qCp-50" edge="1">
          <mxGeometry width="50" height="50" relative="1" as="geometry">
            <mxPoint x="1510" y="-270" as="sourcePoint" />
            <mxPoint x="1630" y="-244" as="targetPoint" />
            <Array as="points">
              <mxPoint x="1360" y="-300" />
            </Array>
          </mxGeometry>
        </mxCell>
        <mxCell id="JU_nMkFmCKwqY1G1YkKE-19" value="" style="endArrow=none;html=1;rounded=0;edgeStyle=orthogonalEdgeStyle;" parent="WIyWlLk6GJQsqaUBKTNV-1" source="6CRWh8PKts176B--1qCp-50" target="6CRWh8PKts176B--1qCp-57" edge="1">
          <mxGeometry width="50" height="50" relative="1" as="geometry">
            <mxPoint x="2030" y="-80" as="sourcePoint" />
            <mxPoint x="2120" y="-80" as="targetPoint" />
          </mxGeometry>
        </mxCell>
        <mxCell id="maccgnzFSgEfdM4xMET2-3" style="rounded=0;orthogonalLoop=1;jettySize=auto;html=1;endArrow=none;endFill=0;fillColor=#a20025;strokeColor=#6F0000;" edge="1" parent="WIyWlLk6GJQsqaUBKTNV-1" source="maccgnzFSgEfdM4xMET2-2" target="6CRWh8PKts176B--1qCp-87">
          <mxGeometry relative="1" as="geometry" />
        </mxCell>
        <mxCell id="maccgnzFSgEfdM4xMET2-4" style="rounded=0;orthogonalLoop=1;jettySize=auto;html=1;endArrow=none;endFill=0;fillColor=#a20025;strokeColor=#6F0000;" edge="1" parent="WIyWlLk6GJQsqaUBKTNV-1" source="maccgnzFSgEfdM4xMET2-2" target="6CRWh8PKts176B--1qCp-36">
          <mxGeometry relative="1" as="geometry" />
        </mxCell>
        <mxCell id="maccgnzFSgEfdM4xMET2-2" value="IdentityUser&lt;br&gt;Identity" style="rounded=0;whiteSpace=wrap;html=1;" vertex="1" parent="WIyWlLk6GJQsqaUBKTNV-1">
          <mxGeometry x="2560" y="-600" width="160" height="40" as="geometry" />
        </mxCell>
        <mxCell id="maccgnzFSgEfdM4xMET2-5" value="IdentityDbContext&lt;br&gt;Identity" style="rounded=0;whiteSpace=wrap;html=1;" vertex="1" parent="WIyWlLk6GJQsqaUBKTNV-1">
          <mxGeometry x="2055" y="-840" width="160" height="40" as="geometry" />
        </mxCell>
      </root>
    </mxGraphModel>
  </diagram>
</mxfile>
